<?xml version="1.0" encoding="utf-8"?>
<!-- Generator: Adobe Illustrator 25.2.0, SVG Export Plug-In . SVG Version: 6.00 Build 0)  -->
<svg version="1.1" id="Layer_1" xmlns="http://www.w3.org/2000/svg" xmlns:xlink="http://www.w3.org/1999/xlink" x="0px" y="0px"
	 viewBox="0 0 1366 768" style="enable-background:new 0 0 1366 768;" xml:space="preserve">
<path style="fill:none;stroke:#FFFFFF;stroke-width:8;stroke-miterlimit:10;" d="M651-117.5C551.12-93.26,482.57-1.86,487.3,97.39
	c4.4,92.23,71.16,172.4,163.7,194.63"/>
<path style="fill:none;stroke:#000000;stroke-width:8;stroke-miterlimit:10;" d="M2084,0c-31.9,6.79-109.2,28.05-169,98
	c-21.31,24.93-68.4,80.01-64,154c3.18,53.51,31.67,89.81,64,131c26.76,34.09,77.71,89.07,164,133"/>
<path style="fill:none;stroke:#FFFFFF;stroke-width:8;stroke-miterlimit:10;" d="M655.33,658.57
	c89.09-22.65,149.51-105.05,144.32-193.77c-4.82-82.44-65.31-153.49-148.29-172.48"/>
<path style="fill:none;stroke:#FFFFFF;stroke-width:8;stroke-miterlimit:10;" d="M656.62,658.2
	C556.88,683,488.84,774.78,494.13,874.01c4.91,92.2,72.13,172,164.79,193.7"/>
<path style="fill:none;stroke:#FFFFFF;stroke-width:8;stroke-miterlimit:10;" d="M665.31,1434.24
	c88.96-23.15,148.92-105.89,143.23-194.58c-5.29-82.41-66.17-153.12-149.25-171.64"/>
<path style="fill:none;stroke:#FFFFFF;stroke-width:8;stroke-miterlimit:10;" d="M679.76,1429.81
	c-99.74,24.8-167.78,116.58-162.49,215.81c4.91,92.2,72.13,172,164.79,193.7"/>
<path style="fill:none;stroke:#FFFFFF;stroke-width:8;stroke-miterlimit:10;" d="M688.46,2205.85
	c88.96-23.15,148.92-105.89,143.23-194.58c-5.29-82.41-66.17-153.12-149.25-171.64"/>
<path style="fill:none;stroke:#FFFFFF;stroke-width:8;stroke-miterlimit:10;" d="M703.19,2202.09
	c-99.74,24.8-167.78,116.58-162.49,215.81c4.91,92.2,72.13,172,164.79,193.7"/>
<path style="fill:none;stroke:#FFFFFF;stroke-width:8;stroke-miterlimit:10;" d="M711.88,2978.13
	c88.96-23.15,148.92-105.89,143.23-194.58c-5.29-82.41-66.17-153.12-149.25-171.64"/>
</svg>
