<?xml version="1.0"?>
<svg xmlns="http://www.w3.org/2000/svg" xmlns:xlink="http://www.w3.org/1999/xlink" xmlns:svgjs="http://svgjs.com/svgjs" version="1.1" width="512" height="512" x="0" y="0" viewBox="0 0 480 480" style="enable-background:new 0 0 512 512" xml:space="preserve" class=""><g>
<path xmlns="http://www.w3.org/2000/svg" style="" d="M255.816,400c-4.418-0.001-7.999-3.583-7.998-8.002c0-2.121,0.843-4.154,2.342-5.654L404.504,232  L274.16,101.656c-3.069-3.178-2.982-8.243,0.196-11.312c3.1-2.994,8.015-2.994,11.116,0L427.128,232L261.472,397.656  C259.972,399.157,257.938,400,255.816,400z" fill="#7d8f9f" data-original="#7d8f9f"/>
<g xmlns="http://www.w3.org/2000/svg">
	<circle style="" cx="407.816" cy="232" r="24" fill="#31b1ae" data-original="#31b1ae" class=""/>
	<path style="" d="M247.816,128l42.68-42.68c8.526-8.526,13.297-20.102,13.256-32.16v-0.056   C303.664,28.168,283.425,8,258.488,8c-12.024,0.001-23.554,4.785-32.048,13.296L183.816,64L247.816,128z" fill="#31b1ae" data-original="#31b1ae" class=""/>
	<path style="" d="M216.704,223.112l-128-128L102.216,81.6c16.973-16.975,39.995-26.512,64-26.512   c49.977,0.018,90.484,40.535,90.488,90.512c0,24.005-9.537,47.027-26.512,64L216.704,223.112z" fill="#31b1ae" data-original="#31b1ae" class=""/>
</g>
<ellipse xmlns="http://www.w3.org/2000/svg" transform="matrix(-0.7071 -0.7071 0.7071 -0.7071 152.2956 377.8995)" style="" cx="154.413" cy="157.408" rx="90.512" ry="54.152" fill="#ffd884" data-original="#ffd884" class=""/>
<g xmlns="http://www.w3.org/2000/svg">
	<path style="" d="M63.816,248c-4.418-0.001-7.999-3.583-7.998-8.002c0-2.121,0.843-4.154,2.342-5.654l16-16   c3.178-3.069,8.243-2.981,11.312,0.197c2.994,3.1,2.994,8.015,0,11.115l-16,16C67.972,247.157,65.938,248,63.816,248z" fill="#fff89b" data-original="#fff89b"/>
	<path style="" d="M119.816,264c-4.418,0-8-3.582-8-8v-16c0-4.418,3.582-8,8-8c4.418,0,8,3.582,8,8v16   C127.816,260.418,124.235,264,119.816,264z" fill="#fff89b" data-original="#fff89b"/>
	<path style="" d="M63.816,192h-16c-4.418,0-8-3.582-8-8s3.582-8,8-8h16c4.418,0,8,3.582,8,8S68.235,192,63.816,192z" fill="#fff89b" data-original="#fff89b"/>
	<circle style="" cx="127.816" cy="176" r="32" fill="#fff89b" data-original="#fff89b"/>
</g>
<circle xmlns="http://www.w3.org/2000/svg" style="" cx="183.816" cy="408" r="24" fill="#ffd884" data-original="#ffd884" class=""/>
<path xmlns="http://www.w3.org/2000/svg" style="" d="M159.816,472c0-48.601,39.399-88,88-88s88,39.399,88,88H159.816z" fill="#31b1ae" data-original="#31b1ae" class=""/>
<path xmlns="http://www.w3.org/2000/svg" style="" d="M289.416,448c-2.858,0-5.499-1.525-6.928-4c-7.176-12.36-20.38-19.977-34.672-20  c-4.418,0-8-3.582-8-8s3.582-8,8-8c19.997,0.042,38.467,10.704,48.504,28c2.209,3.826,0.898,8.719-2.928,10.928  C292.183,447.626,290.813,447.996,289.416,448z" fill="#88d0ef" data-original="#88d0ef" class=""/>
<path xmlns="http://www.w3.org/2000/svg" d="M74.16,218.344l-16,16c-3.178,3.07-3.266,8.134-0.196,11.312s8.134,3.266,11.312,0.196c0.067-0.064,0.132-0.13,0.196-0.196  l16-16c3.069-3.178,2.981-8.243-0.197-11.312C82.175,215.35,77.261,215.35,74.16,218.344L74.16,218.344z" fill="#040404" data-original="#000000" style="" class=""/>
<path xmlns="http://www.w3.org/2000/svg" d="M111.816,240v16c0,4.418,3.582,8,8,8c4.418,0,8-3.582,8-8v-16c0-4.418-3.582-8-8-8C115.398,232,111.816,235.582,111.816,240  z" fill="#040404" data-original="#000000" style="" class=""/>
<path xmlns="http://www.w3.org/2000/svg" d="M47.816,192h16c4.418,0,8-3.582,8-8s-3.582-8-8-8h-16c-4.418,0-8,3.582-8,8S43.398,192,47.816,192z" fill="#040404" data-original="#000000" style="" class=""/>
<path xmlns="http://www.w3.org/2000/svg" d="M239.816,416c0,4.418,3.582,8,8,8c14.287,0.029,27.483,7.645,34.656,20c2.094,3.891,6.945,5.347,10.836,3.254  s5.347-6.945,3.254-10.836c-0.076-0.142-0.157-0.281-0.242-0.418c-10.037-17.296-28.507-27.958-48.504-28  C243.398,408,239.816,411.582,239.816,416z" fill="#040404" data-original="#000000" style="" class=""/>
<path xmlns="http://www.w3.org/2000/svg" d="M87.816,176c0.025,21.899,17.654,39.707,39.552,39.952c17.686,14.415,39.483,22.859,62.264,24.12  c10.875,0.245,21.519-3.16,30.232-9.672c0.929-0.389,1.776-0.951,2.496-1.656l13.456-13.464  c23.747-23.668,33.766-57.822,26.568-90.568l17.432-17.4L383.704,211.2c-10.517,11.872-10.517,29.728,0,41.6l-124,124  c-18.468-2.464-37.251,0.677-53.912,9.016c-0.128-0.144-0.168-0.32-0.304-0.456c-12.67-12.074-32.586-12.074-45.256,0  c-12.492,12.496-12.492,32.752,0,45.248c0.267,0.206,0.547,0.393,0.84,0.56c-6.077,12.755-9.239,26.703-9.256,40.832  c0,4.418,3.582,8,8,8h176c4.418,0,8-3.582,8-8c-0.066-41.296-26.503-77.935-65.672-91.016l118.96-118.96  c16.582,6.114,34.98-2.372,41.095-18.953c6.114-16.582-2.372-34.981-18.953-41.095c-7.145-2.635-14.996-2.635-22.141,0L291.128,96  l5.024-5.016c20.81-20.823,20.8-54.573-0.023-75.383C286.141,5.619,272.601,0.008,258.48,0  c-14.155-0.037-27.735,5.599-37.704,15.648L187.104,49.4c-32.751-7.19-66.906,2.842-90.568,26.6l-13.52,13.456  c-0.211,0.275-0.404,0.563-0.576,0.864c-16,18.872-13.856,50.696,5.648,82.688C88.04,174.008,87.816,174.976,87.816,176L87.816,176z   M171.528,396.688c5.37-5.104,13.489-5.989,19.832-2.16c-8.469,6.165-15.88,13.666-21.944,22.208  C165.293,410.395,166.174,402.031,171.528,396.688z M327.416,464h-159.2c4.413-43.962,43.628-76.023,87.59-71.61  C293.67,396.191,323.616,426.137,327.416,464z M407.816,216c8.837,0,16,7.163,16,16c0,8.837-7.163,16-16,16s-16-7.163-16-16  C391.816,223.164,398.98,216,407.816,216z M103.816,176c0-13.255,10.745-24,24-24s24,10.745,24,24s-10.745,24-24,24  S103.816,189.255,103.816,176z M232.104,26.944c14.533-14.572,38.128-14.602,52.699-0.069c6.991,6.973,10.929,16.435,10.949,26.309  c0.007,9.924-3.92,19.446-10.92,26.48l-27.816,27.824c-10.041-23.75-28.944-42.651-52.696-52.688L232.104,26.944z M166.216,63.112  c45.508-0.053,82.443,36.795,82.497,82.303c0.018,15.042-4.083,29.803-11.857,42.681c-1.536-23.544-14.912-51.056-38.496-74.64  s-51.096-36.96-74.64-38.496C136.536,67.199,151.234,63.101,166.216,63.112z M96.088,99.064  c17.688-17.688,59.36-5.912,90.984,25.704s43.392,73.288,25.704,90.984c-12.8,12.8-39.152,10.128-64.968-5.296  c19.1-10.976,25.687-35.358,14.711-54.458c-10.976-19.1-35.358-25.687-54.458-14.711c-4.971,2.856-9.267,6.75-12.597,11.417  c-10.144-22.184-10.304-42.736,0.6-53.64L96.088,99.064z" fill="#040404" data-original="#000000" style="" class=""/>
<g xmlns="http://www.w3.org/2000/svg">
</g>
<g xmlns="http://www.w3.org/2000/svg">
</g>
<g xmlns="http://www.w3.org/2000/svg">
</g>
<g xmlns="http://www.w3.org/2000/svg">
</g>
<g xmlns="http://www.w3.org/2000/svg">
</g>
<g xmlns="http://www.w3.org/2000/svg">
</g>
<g xmlns="http://www.w3.org/2000/svg">
</g>
<g xmlns="http://www.w3.org/2000/svg">
</g>
<g xmlns="http://www.w3.org/2000/svg">
</g>
<g xmlns="http://www.w3.org/2000/svg">
</g>
<g xmlns="http://www.w3.org/2000/svg">
</g>
<g xmlns="http://www.w3.org/2000/svg">
</g>
<g xmlns="http://www.w3.org/2000/svg">
</g>
<g xmlns="http://www.w3.org/2000/svg">
</g>
<g xmlns="http://www.w3.org/2000/svg">
</g>
</g></svg>
