<?xml version="1.0"?>
<svg xmlns="http://www.w3.org/2000/svg" xmlns:xlink="http://www.w3.org/1999/xlink" xmlns:svgjs="http://svgjs.com/svgjs" version="1.1" width="512" height="512" x="0" y="0" viewBox="0 0 512 512" style="enable-background:new 0 0 512 512" xml:space="preserve" class=""><g><path xmlns="http://www.w3.org/2000/svg" d="m291.449219 476.550781c0 19.578125-15.871094 35.449219-35.449219 35.449219s-35.449219-15.871094-35.449219-35.449219c0-19.574219 15.871094-35.445312 35.449219-35.445312s35.449219 15.871093 35.449219 35.445312zm0 0" fill="#fcf2a1" data-original="#a1f1fc" style="" class=""/><path xmlns="http://www.w3.org/2000/svg" d="m91.929688 405.65625c0 19.578125-15.871094 35.449219-35.449219 35.449219s-35.449219-15.871094-35.449219-35.449219 15.871094-35.449219 35.449219-35.449219 35.449219 15.871094 35.449219 35.449219zm0 0" fill="#fcf2a1" data-original="#a1f1fc" style="" class=""/><path xmlns="http://www.w3.org/2000/svg" d="m56.480469 431.105469c-17.875 0-32.621094-13.246094-35.054688-30.449219-.230469 1.636719-.394531 3.296875-.394531 5 0 19.578125 15.871094 35.449219 35.449219 35.449219s35.449219-15.871094 35.449219-35.449219c0-1.703125-.164063-3.363281-.394532-5-2.4375 17.203125-17.179687 30.449219-35.054687 30.449219zm0 0" fill="#cd7527" data-original="#69ebfc" style="" class=""/><path xmlns="http://www.w3.org/2000/svg" d="m256 502c-17.875 0-32.621094-13.242188-35.054688-30.449219-.230468 1.640625-.394531 3.300781-.394531 5 0 19.578125 15.871094 35.449219 35.449219 35.449219s35.449219-15.871094 35.449219-35.449219c0-1.699219-.164063-3.359375-.394531-5-2.433594 17.207031-17.179688 30.449219-35.054688 30.449219zm0 0" fill="#cd7527" data-original="#69ebfc" style="" class=""/><path xmlns="http://www.w3.org/2000/svg" d="m50.660156 0h11.640625v243.964844h-11.640625zm0 0" fill="#5861c7" data-original="#5861c7" style="" class=""/><path xmlns="http://www.w3.org/2000/svg" d="m103.964844 318.84375c-1.328125-12.800781-10.996094-22.875-23.265625-25.085938v-33.097656c0-13.375-10.84375-24.21875-24.222657-24.21875-13.375 0-24.21875 10.84375-24.21875 24.21875v33.097656c-12.269531 2.210938-21.941406 12.285157-23.265624 25.085938l-8.992188 86.8125h112.957031zm0 0" fill="#ff8354" data-original="#ff8354" style="" class=""/><path xmlns="http://www.w3.org/2000/svg" d="m56.480469 255.84375c11.09375 0 20.53125 6.539062 24.21875 15.707031v-10.886719c0-13.375-10.84375-24.21875-24.21875-24.21875s-24.21875 10.84375-24.21875 24.21875v10.886719c3.683593-9.171875 13.121093-15.707031 24.21875-15.707031zm0 0" fill="#ffac8c" data-original="#ffac8c" style="" class=""/><path xmlns="http://www.w3.org/2000/svg" d="m250.179688 0h11.640624v314.863281h-11.640624zm0 0" fill="#5861c7" data-original="#5861c7" style="" class=""/><path xmlns="http://www.w3.org/2000/svg" d="m303.484375 389.738281c-1.324219-12.796875-10.992187-22.875-23.265625-25.085937v-33.09375c0-13.375-10.84375-24.21875-24.21875-24.21875s-24.21875 10.84375-24.21875 24.21875v33.09375c-12.269531 2.210937-21.941406 12.289062-23.265625 25.085937l-8.996094 86.816407h112.957031zm0 0" fill="#ff8354" data-original="#ff8354" style="" class=""/><path xmlns="http://www.w3.org/2000/svg" d="m256 326.738281c11.09375 0 20.53125 6.539063 24.21875 15.710938v-10.890625c0-13.375-10.84375-24.21875-24.21875-24.21875s-24.21875 10.84375-24.21875 24.21875v10.890625c3.6875-9.171875 13.125-15.710938 24.21875-15.710938zm0 0" fill="#ffac8c" data-original="#ffac8c" style="" class=""/><path xmlns="http://www.w3.org/2000/svg" d="m449.699219 0h11.640625v169.023438h-11.640625zm0 0" fill="#5861c7" data-original="#5861c7" style="" class=""/><path xmlns="http://www.w3.org/2000/svg" d="m490.96875 330.710938c0 19.578124-15.871094 35.449218-35.449219 35.449218s-35.449219-15.871094-35.449219-35.449218c0-19.578126 15.871094-35.445313 35.449219-35.445313s35.449219 15.867187 35.449219 35.445313zm0 0" fill="#fcf2a1" data-original="#a1f1fc" style="" class=""/><path xmlns="http://www.w3.org/2000/svg" d="m455.519531 356.160156c-17.875 0-32.621093-13.246094-35.054687-30.449218-.230469 1.640624-.394532 3.300781-.394532 5 0 19.578124 15.871094 35.449218 35.449219 35.449218s35.449219-15.871094 35.449219-35.449218c0-1.699219-.164062-3.359376-.394531-5-2.433594 17.203124-17.179688 30.449218-35.054688 30.449218zm0 0" fill="#cd7527" data-original="#69ebfc" style="" class=""/><path xmlns="http://www.w3.org/2000/svg" d="m503.007812 243.898438c-1.328124-12.796876-10.996093-22.875-23.269531-25.085938v-33.09375c0-13.375-10.84375-24.21875-24.21875-24.21875s-24.21875 10.84375-24.21875 24.21875v33.097656c-12.269531 2.210938-21.941406 12.285156-23.265625 25.082032l-8.996094 86.816406h112.960938zm0 0" fill="#ff8354" data-original="#ff8354" style="" class=""/><path xmlns="http://www.w3.org/2000/svg" d="m455.519531 180.898438c11.09375 0 20.53125 6.539062 24.21875 15.710937v-10.890625c0-13.375-10.84375-24.21875-24.21875-24.21875s-24.21875 10.84375-24.21875 24.21875v10.890625c3.6875-9.171875 13.125-15.710937 24.21875-15.710937zm0 0" fill="#ffac8c" data-original="#ffac8c" style="" class=""/><path xmlns="http://www.w3.org/2000/svg" d="m503.386719 17.222656h-494.773438c-4.757812 0-8.613281-3.855468-8.613281-8.609375 0-4.757812 3.855469-8.613281 8.613281-8.613281h494.777344c4.753906 0 8.609375 3.855469 8.609375 8.613281 0 4.753907-3.855469 8.609375-8.613281 8.609375zm0 0" fill="#6770e6" data-original="#6770e6" style="" class=""/><path xmlns="http://www.w3.org/2000/svg" d="m8.613281 8h494.777344c3.304687 0 6.136719 1.878906 7.582031 4.613281.636719-1.203125 1.027344-2.550781 1.027344-4 0-4.757812-3.855469-8.613281-8.613281-8.613281h-494.773438c-4.757812 0-8.613281 3.855469-8.613281 8.613281 0 1.449219.394531 2.796875 1.027344 4 1.445312-2.734375 4.28125-4.613281 7.585937-4.613281zm0 0" fill="#8f95e6" data-original="#8f95e6" style="" class=""/><g xmlns="http://www.w3.org/2000/svg" fill="#e0734a"><path d="m0 405.65625h112.957031l-2.25-21.714844h-108.457031zm0 0" fill="#e0734a" data-original="#e0734a" style="" class=""/><path d="m199.519531 476.550781h112.960938l-2.25-21.714843h-108.460938zm0 0" fill="#e0734a" data-original="#e0734a" style="" class=""/><path d="m399.042969 330.710938h112.957031l-2.25-21.714844h-108.457031zm0 0" fill="#e0734a" data-original="#e0734a" style="" class=""/></g></g></svg>
