<?xml version="1.0" encoding="utf-8"?>
<!-- Generator: Adobe Illustrator 25.2.0, SVG Export Plug-In . SVG Version: 6.00 Build 0)  -->
<svg version="1.1" id="Capa_1" xmlns="http://www.w3.org/2000/svg" xmlns:xlink="http://www.w3.org/1999/xlink" x="0px" y="0px"
	 viewBox="0 0 512 512" style="enable-background:new 0 0 512 512;" xml:space="preserve">
<g>
	<path style="fill:#FFAF46;" d="M392,250.7L392,250.7L392,250.7l96.3-96.4c0,0,0,0,0,0c6.6-6.7,6.6-17.4,0-24.1l-42.8-42.8v48.8
		h-34.1V53.4L392,33.9c0,0,0,0,0,0c-6.7-6.6-17.4-6.6-24.1,0l-96.4,96.3l0,0l0,0L392,250.7z"/>
	<polygon style="fill:#FFAF46;" points="163.1,166.4 225.5,228.7 293.5,296.7 355.8,359.1 392,250.7 271.5,130.2 	"/>
</g>
<g>
	<polygon style="fill:#FFDA44;" points="271.5,130.2 392,250.7 392,250.7 271.5,130.2 	"/>
	<path style="fill:#FFDA44;" d="M293.5,296.7l-68-68c-9.4,19.5-5.4,42.8,9.9,58.1C250.7,302.1,274,306.1,293.5,296.7z"/>
</g>
<polygon style="fill:#8B5E3C;" points="445.6,136.3 445.6,87.5 445.6,8.5 411.5,8.5 411.5,53.4 411.5,136.3 "/>
<g>
	<path style="fill:#231F20;" d="M78.8,443.4c-3.3-3.3-3.3-8.7,0-12l108.4-108.4c3.3-3.2,8.5-3.2,11.8,0c3.4,3.3,3.5,8.7,0.2,12
		L90.9,443.4c-1.6,1.6-3.8,2.5-6,2.5C82.6,445.9,80.4,445,78.8,443.4z"/>
	<path style="fill:#231F20;" d="M164.6,247L16.5,207.3c-4.5-1.2-7.2-5.9-6-10.4c1.2-4.5,5.9-7.2,10.4-6L169,230.5
		c3.7,1,6.3,4.4,6.3,8.2c0,4.7-3.8,8.5-8.5,8.5C166.1,247.3,165.3,247.2,164.6,247z"/>
	<path style="fill:#231F20;" d="M323.4,505.7l-39.7-148.1c-1-4.3,1.5-8.6,5.7-10c4.5-1.4,9.3,1.1,10.7,5.6l39.7,148.1l0,0
		c1.2,4.5-1.5,9.2-6,10.4c-0.7,0.2-1.5,0.3-2.2,0.3C327.8,512,324.4,509.4,323.4,505.7z"/>
	<path style="fill:#231F20;" d="M79.1,320.2c-3.8,0-7.2-2.6-8.2-6.3c-1.2-4.5,1.5-9.2,6-10.4l98.7-26.4c4.5-1.2,9.2,1.5,10.4,6
		c1.2,4.5-1.4,9.2-6,10.5l-98.7,26.5C80.6,320.1,79.8,320.2,79.1,320.2L79.1,320.2z"/>
	<path style="fill:#231F20;" d="M208.3,451.4C208.3,451.4,208.3,451.4,208.3,451.4c-4.6-1.2-7.3-5.9-6-10.5l26.5-98.7
		c1.2-4.5,5.9-7.2,10.4-6c4.5,1.2,7.3,5.9,6.1,10.4l-26.5,98.7c-1,3.7-4.4,6.3-8.2,6.3C209.8,451.6,209.1,451.5,208.3,451.4z"/>
	<path style="fill:#231F20;" d="M157.1,172.4l58.4,58.4c-2.3,6.5-3.5,13.3-3.5,20.1c0,32.8,26.7,59.4,59.5,59.4
		c6.8,0,13.6-1.2,20-3.5l58.3,58.3c1.6,1.6,3.8,2.5,6,2.5c0.7,0,1.3-0.1,1.9-0.2c2.9-0.7,5.2-2.8,6.1-5.6l35.5-106.4l95-95.1
		c10-10,10-26.2,0-36.1l-40.3-40.3V8.5c0-4.7-3.8-8.5-8.5-8.5l-34.1,0c-4.7,0-8.5,3.8-8.5,8.5v24.3l-5-5c-10-10-26.2-10-36.1,0
		l-95.1,95l-106.4,35.5c-2.8,0.9-4.9,3.2-5.6,6.1C154.2,167.3,155,170.3,157.1,172.4z M229.4,244.7l48.2,48.2
		c-13.3,1.9-26.6-2.6-36.1-12.1C231.9,271.3,227.5,257.9,229.4,244.7z M437,127.7h-17V17h17V127.7z M482.3,148.3L392,238.7
		L283.5,130.2l90.4-90.3c0,0,0,0,0,0c3.3-3.3,8.7-3.3,12,0l17,17v79.3c0,4.7,3.8,8.5,8.5,8.5h34.1c4.7,0,8.5-3.8,8.5-8.5V108
		l28.2,28.2C485.6,139.6,485.6,145,482.3,148.3z M178.9,170.1l90.3-30.1l113,113l-30.1,90.3L178.9,170.1z"/>
</g>
</svg>
