<?xml version="1.0" encoding="utf-8"?>
<!-- Generator: Adobe Illustrator 25.2.0, SVG Export Plug-In . SVG Version: 6.00 Build 0)  -->
<svg version="1.1" id="Layer_1" xmlns:svgjs="http://svgjs.com/svgjs"
	 xmlns="http://www.w3.org/2000/svg" xmlns:xlink="http://www.w3.org/1999/xlink" x="0px" y="0px" viewBox="0 0 512 512"
	 style="enable-background:new 0 0 512 512;" xml:space="preserve">
<style type="text/css">
	.st0{fill:#C49A6C;}
	.st1{fill:#FFDA44;}
	.st2{fill:#754C29;}
	.st3{fill:#FFAF46;}
	.st4{fill:#FFBB60;}
	.st5{fill:#F9FF46;}
</style>
<g>
	<g id="surface1">
		<path class="st0" d="M156.6,160.5l63.4,63.4l69.2,69.2l63.4,63.4l36.7-110.2L266.8,123.8L156.6,160.5z"/>
		<path class="st1" d="M266.8,123.8l122.5,122.5v0L266.8,123.8L266.8,123.8z"/>
		<path class="st1" d="M289.1,293.1l-69.2-69.2c-9.5,19.8-5.5,43.5,10.1,59.1C245.6,298.6,269.3,302.6,289.1,293.1z"/>
		<path class="st2" d="M443.8,129.9V0l-34.6,0v129.9H443.8z"/>
		<path class="st3" d="M409.1,103.9l-81.1,81.1l61.2,61.2l97.9-98c3.3-3.3,5.1-7.7,5.1-12.3c0-4.6-1.8-9-5.1-12.3l-43.5-43.5v49.6
			h-34.6V103.9z"/>
		<path class="st4" d="M266.8,123.8L328,185l81.1-81.1V45.6l-19.8-19.8c-3.2-3.3-7.7-5.1-12.3-5.1s-9,1.8-12.3,5.1L266.8,123.8z"/>
		<path class="st5" d="M69,439.4c-1.3-3.2-0.6-7,1.9-9.4l110.2-110.2c3.4-3.3,8.8-3.2,12.1,0.1c3.3,3.3,3.4,8.7,0.1,12.1L83.1,442.2
			c-1.6,1.6-3.8,2.5-6.1,2.5C73.4,444.8,70.3,442.6,69,439.4z"/>
		<path class="st5" d="M158,242.5L7.5,202.2c-4.6-1.2-7.4-6-6.1-10.6c1.2-4.6,6-7.4,10.6-6.1l150.6,40.3c4.2,1.1,6.9,5.2,6.3,9.5
			c-0.6,4.3-4.2,7.5-8.6,7.5C159.5,242.8,158.8,242.7,158,242.5z"/>
		<path class="st5" d="M319.5,505.6L279.2,355c-1-4.5,1.7-9,6.2-10.2c4.5-1.2,9.1,1.3,10.5,5.8l40.3,150.6c1.2,4.6-1.5,9.4-6.1,10.6
			c-0.7,0.2-1.5,0.3-2.2,0.3C324,512,320.5,509.4,319.5,505.6z"/>
		<path class="st5" d="M71.1,316.9c-4.3,0-8-3.2-8.6-7.5c-0.6-4.3,2.1-8.4,6.3-9.5L169.2,273c4.6-1.2,9.3,1.5,10.6,6.1
			s-1.5,9.3-6.1,10.6L73.3,316.7C72.6,316.9,71.9,317,71.1,316.9L71.1,316.9z"/>
		<path class="st5" d="M202.5,450.3c-2.2-0.6-4.1-2-5.3-4c-1.2-2-1.5-4.4-0.9-6.6l26.9-100.4c1.3-4.6,6-7.3,10.6-6.1
			c4.6,1.2,7.3,6,6.1,10.6l-27,100.4c-1,3.8-4.4,6.4-8.4,6.4C204,450.6,203.3,450.5,202.5,450.3z"/>
	</g>
</g>
</svg>
