<svg enable-background="new 0 0 1366 768" viewBox="0 0 1366 768" xmlns="http://www.w3.org/2000/svg"><path d="m742.64.23c-36.61 84.41-86.06 227.64-83 398 .69 38.5 2.29 105.82 23 190 16.41 66.69 29.82 83.04 60 181 25.97 84.28 39.37 126.37 46 182 13.82 115.97-3.93 209.24-15 255-7.99 33.03-26.14 97.78-65.3 170.92-24.34 45.45-48.68 79-61.7 96.08-13.49 17.71-24.75 25.8-39.56 47.46-5.8 8.48-19.97 30.13-36.44 71.54-9.52 23.95-21.67 59.18-32 111-11.69 58.61-14.08 103.74-16 141-5.67 110.29 6.37 193.22 10.49 220.54 3.95 26.19 9.3 53.41 16.51 82.46 8.5 34.23 23.78 88.35 56 163 34.01 78.8 52.65 101.3 73 145 61.54 132.15 48.49 264.39 44 305-17.59 159.29-96.22 270.17-136 319" fill="none" stroke="#fff" stroke-miterlimit="10" stroke-width="10"/></svg>