<?xml version="1.0" encoding="utf-8"?>
<!-- Generator: Adobe Illustrator 25.2.0, SVG Export Plug-In . SVG Version: 6.00 Build 0)  -->
<svg version="1.1" id="Layer_1" xmlns:svgjs="http://svgjs.com/svgjs"
	 xmlns="http://www.w3.org/2000/svg" xmlns:xlink="http://www.w3.org/1999/xlink" x="0px" y="0px" viewBox="0 0 512 512"
	 style="enable-background:new 0 0 512 512;" xml:space="preserve">
<g>
	<g>
		<path style="fill:#FFFFFF;" d="M267.3,237.5c0,16.5-13.4,30-29.9,30c-16.5,0-30-13.4-30-30c0-16.5,13.4-29.9,30-29.9
			C253.8,207.6,267.3,221,267.3,237.5z M283,232.8v9.5h190.5v-9.5H283z M260.1,277.1l126.7,126.6l6.7-6.7L266.8,270.4L260.1,277.1z
			 M232.6,512h9.5V283.2h-9.5V512z M194.1,232.8H38.4v9.5h155.7V232.8z M242.1,0h-9.5v196h9.5L242.1,0L242.1,0z M208.5,220.8
			l5.6-7.6L94.7,124.5l-1.8-1.3l-5.6,7.6l119.4,88.7L208.5,220.8z M393.8,81.4l-6.9-6.5l-127.1,133l6.9,6.5L393.8,81.4z M97.1,397.5
			l7.1,6.2l110.3-127l-7.2-6.2L97.1,397.5z M288.6,269.2L434,309.9l2.5-9.1l-145.4-40.7L288.6,269.2z M112.6,281.7l3.3,8.9
			l79.8-29.3l-3.3-8.9L112.6,281.7z M284.7,220.9l130.2-45.2l-3.1-8.9l-130.2,45.2L284.7,220.9z M219.6,197.8l8.6-4L155.1,35.5
			l-0.9-2l-8.6,4l73.2,158.3L219.6,197.8z"/>
	</g>
</g>
</svg>
