<?xml version="1.0" encoding="utf-8"?>
<!-- Generator: Adobe Illustrator 25.2.0, SVG Export Plug-In . SVG Version: 6.00 Build 0)  -->
<svg version="1.1" id="Layer_1" xmlns="http://www.w3.org/2000/svg" xmlns:xlink="http://www.w3.org/1999/xlink" x="0px" y="0px"
	 viewBox="0 0 159.9 105" style="enable-background:new 0 0 159.9 105;" xml:space="preserve">
<path id="Untitled-1" style="fill:none;stroke:#FFFFFF;stroke-width:7;stroke-miterlimit:10;" d="M2.9,101.5L65.9,5
	c1.4-2.1,2.5-1.8,2.4,0.8l-3,91c-0.1,2.6-2.2,4.6-4.8,4.6H46.6c-2.6,0-3.4-1.7-1.9-3.7L114,4.8c1.5-2.1,2.6-1.6,2.5,0.9l-6.4,91
	c-0.2,2.6-2.4,4.6-5,4.6H94.9c-2.6,0-3.5-1.7-2.1-3.9L154.1,5c1.4-2.1,2.4-1.8,2.2,0.8l-6.7,95.7"/>
</svg>
